<svg width="32" height="32" viewBox="0 0 32 32" fill="none" xmlns="http://www.w3.org/2000/svg">
<path fill-rule="evenodd" clip-rule="evenodd" d="M23.6484 10.7966C22.4481 9.52849 20.6212 9.19515 19.1279 10.1591C18.6198 10.4872 18.103 10.9902 17.6358 11.7316L16.3305 13.8031L14.9574 11.7759C14.4569 11.0369 13.9195 10.5277 13.3979 10.1921C11.9178 9.23972 10.2927 9.52283 9.21052 10.6047C8.14308 11.6719 7.45351 13.7222 8.5669 16.5143L8.57157 16.526L8.57365 16.5314C8.57499 16.5348 8.57797 16.5421 8.58266 16.5534C8.59311 16.5784 8.61198 16.6224 8.63991 16.6833C8.69583 16.8051 8.78773 16.9938 8.92067 17.2325C9.18702 17.7107 9.6149 18.3837 10.2437 19.1204C11.4306 20.5112 13.3346 22.1324 16.2511 23.1117C18.8271 22.1402 20.7237 20.6434 21.9977 19.3515C22.6727 18.667 23.1665 18.0463 23.4868 17.6047C23.6468 17.3842 23.7626 17.2095 23.8356 17.0951C23.872 17.0379 23.8976 16.996 23.9126 16.9711L23.9219 16.9553C25.4181 14.1738 24.7851 11.9974 23.6484 10.7966ZM23.9283 16.9445C23.9283 16.9445 23.9279 16.9453 23.927 16.9468L23.9283 16.9445ZM25.3173 17.7387L26.7092 18.5278L26.7169 18.5141L26.7244 18.5003C28.8284 14.6131 28.1544 10.9019 25.9724 8.59675C23.851 6.35571 20.3418 5.56669 17.3924 7.47067C16.9924 7.72889 16.6112 8.03219 16.252 8.37996C15.8949 8.04542 15.5199 7.75225 15.1295 7.50106C12.3202 5.69341 9.04129 6.24908 6.9481 8.34166C4.84147 10.4477 4.08387 13.9045 5.59165 17.6924L5.60077 17.7155C5.60815 17.734 5.61782 17.7578 5.62987 17.7867C5.65396 17.8444 5.6876 17.9222 5.73151 18.0179C5.8193 18.2092 5.94849 18.4726 6.12509 18.7896C6.47784 19.4229 7.02291 20.276 7.80959 21.1978C9.38833 23.0476 11.9389 25.1705 15.8235 26.3328L16.3131 26.4793L16.797 26.3149C20.2058 25.1563 22.6692 23.228 24.2762 21.5984C25.0809 20.7824 25.6773 20.0349 26.0772 19.4835C26.2774 19.2075 26.4292 18.9795 26.5339 18.8153C26.5862 18.7332 26.6269 18.6668 26.656 18.6183C26.6706 18.594 26.6823 18.5742 26.6912 18.559L26.7023 18.5398L26.7063 18.5329L26.7085 18.5289C26.7085 18.5289 26.7092 18.5278 25.3173 17.7387Z" fill="black"/>
</svg>
