<svg width="32" height="32" viewBox="0 0 32 32" fill="none" xmlns="http://www.w3.org/2000/svg">
<path fill-rule="evenodd" clip-rule="evenodd" d="M23.1999 21.6C26.2927 21.6 28.7999 19.0927 28.7999 16C28.7999 12.9072 26.2927 10.4 23.1999 10.4C20.1071 10.4 17.5999 12.9072 17.5999 16C17.5999 19.0927 20.1071 21.6 23.1999 21.6ZM23.1999 24.8C28.06 24.8 31.9999 20.8601 31.9999 16C31.9999 11.1398 28.06 7.19995 23.1999 7.19995C18.3398 7.19995 14.3999 11.1398 14.3999 16C14.3999 20.8601 18.3398 24.8 23.1999 24.8Z" fill="#0D0D0D"/>
<path fill-rule="evenodd" clip-rule="evenodd" d="M6.3999 20.8C6.3999 19.9163 7.11625 19.2 7.9999 19.2H9.5999C10.4836 19.2 11.1999 19.9163 11.1999 20.8C11.1999 21.6836 10.4836 22.4 9.5999 22.4H7.9999C7.11625 22.4 6.3999 21.6836 6.3999 20.8Z" fill="#0D0D0D"/>
<path fill-rule="evenodd" clip-rule="evenodd" d="M3.2002 15.2C3.2002 14.3163 3.91654 13.6 4.8002 13.6L9.6002 13.6C10.4839 13.6 11.2002 14.3163 11.2002 15.2C11.2002 16.0836 10.4839 16.8 9.6002 16.8H4.8002C3.91654 16.8 3.2002 16.0836 3.2002 15.2Z" fill="#0D0D0D"/>
<path fill-rule="evenodd" clip-rule="evenodd" d="M0 9.6C0 8.71634 0.716344 8 1.6 8L9.6 8C10.4837 8 11.2 8.71634 11.2 9.6C11.2 10.4837 10.4837 11.2 9.6 11.2L1.6 11.2C0.716344 11.2 0 10.4837 0 9.6Z" fill="#0D0D0D"/>
</svg>
