<svg width="40" height="40" viewBox="0 0 40 40" fill="none" xmlns="http://www.w3.org/2000/svg">
<circle cx="20" cy="20" r="20" fill="#FF89B4"/>
<path fill-rule="evenodd" clip-rule="evenodd" d="M19.5788 20.0561C22.2176 20.0561 24.3568 17.9169 24.3568 15.278C24.3568 12.6392 22.2176 10.5 19.5788 10.5C16.94 10.5 14.8008 12.6392 14.8008 15.278C14.8008 17.9169 16.94 20.0561 19.5788 20.0561Z" stroke="white" stroke-width="2" stroke-linecap="round" stroke-linejoin="round"/>
<path fill-rule="evenodd" clip-rule="evenodd" d="M12 26.7014C11.9987 26.3655 12.0739 26.0337 12.2197 25.7311C12.6774 24.8158 13.968 24.3307 15.0389 24.111C15.8113 23.9462 16.5943 23.836 17.3822 23.7815C18.8408 23.6533 20.3079 23.6533 21.7666 23.7815C22.5544 23.8367 23.3374 23.9468 24.1099 24.111C25.1808 24.3307 26.4714 24.77 26.9291 25.7311C27.2224 26.3479 27.2224 27.064 26.9291 27.6808C26.4714 28.6419 25.1808 29.0812 24.1099 29.2918C23.3384 29.4634 22.5551 29.5766 21.7666 29.6304C20.5794 29.7311 19.3866 29.7494 18.1968 29.6854C17.9222 29.6854 17.6568 29.6854 17.3822 29.6304C16.5966 29.5773 15.8163 29.4641 15.0481 29.2918C13.968 29.0812 12.6865 28.6419 12.2197 27.6808C12.0746 27.3747 11.9996 27.0401 12 26.7014Z" stroke="white" stroke-width="2" stroke-linecap="round" stroke-linejoin="round"/>
</svg>
