<svg width="32" height="32" viewBox="0 0 32 32" fill="none" xmlns="http://www.w3.org/2000/svg">
<path fill-rule="evenodd" clip-rule="evenodd" d="M19.799 19.7989C22.6108 16.9872 22.6108 12.4284 19.799 9.6166C16.9872 6.80482 12.4284 6.80482 9.61665 9.6166C6.80488 12.4284 6.80488 16.9872 9.61665 19.7989C12.4284 22.6107 16.9872 22.6107 19.799 19.7989ZM22.0617 22.0617C26.1232 18.0002 26.1232 11.4153 22.0617 7.35385C18.0003 3.2924 11.4154 3.2924 7.35391 7.35385C3.29246 11.4153 3.29246 18.0002 7.35391 22.0617C11.4154 26.1231 18.0003 26.1231 22.0617 22.0617Z" fill="#0D0D0D"/>
<path fill-rule="evenodd" clip-rule="evenodd" d="M27.7465 26.0041C27.1646 26.6691 26.1538 26.7365 25.4887 26.1546L21.497 22.6619C20.832 22.08 20.7646 21.0691 21.3465 20.4041C21.9284 19.7391 22.9392 19.6717 23.6042 20.2536L27.596 23.7464C28.261 24.3283 28.3284 25.3391 27.7465 26.0041Z" fill="#0D0D0D"/>
</svg>
