<svg width="40" height="40" viewBox="0 0 40 40" fill="none" xmlns="http://www.w3.org/2000/svg">
<circle cx="20" cy="20" r="20" fill="#FF89B4"/>
<path fill-rule="evenodd" clip-rule="evenodd" d="M28.8064 15.6236L28.184 14.5435C27.6574 13.6295 26.4905 13.3143 25.5753 13.8387V13.8387C25.1397 14.0953 24.6198 14.1681 24.1305 14.041C23.6411 13.914 23.2224 13.5975 22.9666 13.1613C22.8021 12.8841 22.7137 12.5683 22.7103 12.246V12.246C22.7251 11.7292 22.5302 11.2283 22.1698 10.8576C21.8094 10.4869 21.3143 10.2778 20.7973 10.278H19.5433C19.0367 10.278 18.5511 10.4799 18.1938 10.8389C17.8364 11.1979 17.6369 11.6845 17.6394 12.1911V12.1911C17.6244 13.2369 16.7722 14.0768 15.7263 14.0766C15.404 14.0733 15.0882 13.9849 14.811 13.8203V13.8203C13.8958 13.296 12.7289 13.6112 12.2023 14.5252L11.5341 15.6236C11.0082 16.5363 11.3192 17.7025 12.2298 18.2322V18.2322C12.8217 18.574 13.1863 19.2055 13.1863 19.889C13.1863 20.5725 12.8217 21.204 12.2298 21.5457V21.5457C11.3203 22.0719 11.009 23.2353 11.5341 24.1453V24.1453L12.1657 25.2345C12.4124 25.6797 12.8264 26.0082 13.3159 26.1474C13.8055 26.2865 14.3304 26.2248 14.7744 25.976V25.976C15.2108 25.7213 15.7309 25.6515 16.2191 25.7821C16.7072 25.9128 17.123 26.233 17.3739 26.6716C17.5385 26.9488 17.6269 27.2646 17.6302 27.5869V27.5869C17.6302 28.6435 18.4867 29.5 19.5433 29.5H20.7973C21.8502 29.5 22.7053 28.6491 22.7103 27.5961V27.5961C22.7079 27.088 22.9086 26.6 23.2679 26.2407C23.6272 25.8814 24.1152 25.6806 24.6233 25.6831C24.9449 25.6917 25.2594 25.7797 25.5387 25.9393V25.9393C26.4515 26.4653 27.6177 26.1543 28.1474 25.2437V25.2437L28.8064 24.1453C29.0615 23.7074 29.1315 23.1859 29.001 22.6963C28.8704 22.2067 28.55 21.7893 28.1108 21.5366V21.5366C27.6715 21.2839 27.3511 20.8665 27.2206 20.3769C27.09 19.8872 27.16 19.3658 27.4151 18.9279C27.581 18.6383 27.8211 18.3981 28.1108 18.2322V18.2322C29.0159 17.7028 29.3262 16.5434 28.8064 15.6327V15.6327V15.6236Z" stroke="white" stroke-width="2" stroke-linecap="round" stroke-linejoin="round"/>
<path fill-rule="evenodd" clip-rule="evenodd" d="M20.1747 22.5252C21.6306 22.5252 22.8109 21.3449 22.8109 19.889C22.8109 18.4331 21.6306 17.2529 20.1747 17.2529C18.7188 17.2529 17.5386 18.4331 17.5386 19.889C17.5386 21.3449 18.7188 22.5252 20.1747 22.5252Z" stroke="white" stroke-width="2" stroke-linecap="round" stroke-linejoin="round"/>
</svg>
