<svg width="40" height="40" viewBox="0 0 40 40" fill="none" xmlns="http://www.w3.org/2000/svg">
<circle cx="20" cy="20" r="20" fill="#FF89B4"/>
<path fill-rule="evenodd" clip-rule="evenodd" d="M20.7135 11.4413L23.0302 16.0967C23.1438 16.3307 23.3673 16.4942 23.6275 16.5337L28.8128 17.2828C29.0232 17.3115 29.2133 17.4219 29.3407 17.5893C29.4682 17.7568 29.5225 17.9675 29.4915 18.1747C29.4654 18.3449 29.3827 18.5018 29.2562 18.6206L25.5007 22.2592C25.3109 22.4386 25.2258 22.7002 25.2745 22.9549L26.1794 28.0829C26.2449 28.5054 25.9552 28.9019 25.5278 28.9747C25.3516 29.0019 25.1712 28.9739 25.012 28.8945L20.3878 26.4776C20.1568 26.3522 19.8767 26.3522 19.6457 26.4776L14.9943 28.9123C14.604 29.1097 14.1253 28.963 13.9174 28.5823C13.8364 28.4289 13.8078 28.2537 13.836 28.0829L14.7409 22.9549C14.7847 22.7005 14.7003 22.4411 14.5147 22.2592L10.732 18.6206C10.4227 18.3115 10.4227 17.8148 10.732 17.5058C10.8583 17.3906 11.0152 17.3132 11.1845 17.2828L16.3698 16.5337C16.6287 16.4914 16.8511 16.3287 16.9671 16.0967L19.2837 11.4413C19.3753 11.2526 19.5403 11.1082 19.7413 11.0411C19.9424 10.9739 20.1624 10.9896 20.3516 11.0846C20.5076 11.1626 20.6344 11.2875 20.7135 11.4413Z" stroke="white" stroke-width="2" stroke-linecap="round" stroke-linejoin="round"/>
</svg>
