<svg width="42" height="14" viewBox="0 0 42 14" fill="none" xmlns="http://www.w3.org/2000/svg">
<path fill-rule="evenodd" clip-rule="evenodd" d="M9.83205 0.4453C9.64659 0.167101 9.33436 0 9 0C8.66565 0 8.35342 0.167101 8.16795 0.4453L0.167951 12.4453C-0.0366195 12.7522 -0.0556921 13.1467 0.118327 13.4719C0.292346 13.797 0.631206 14 1 14H17H29C29.5523 14 30 13.5523 30 13V11.899C31.2705 13.1955 33.0413 14 35 14C38.866 14 42 10.866 42 7C42 3.13401 38.866 0 35 0C33.0413 0 31.2705 0.804467 30 2.10102V1C30 0.447715 29.5523 0 29 0H17C16.4477 0 16 0.447715 16 1V9.69722L9.83205 0.4453ZM9 2.80278L15.1315 12H2.86852L9 2.80278ZM28 2V7V12H18V2H28ZM35 12C32.2386 12 30 9.76142 30 7C30 4.23858 32.2386 2 35 2C37.7614 2 40 4.23858 40 7C40 9.76142 37.7614 12 35 12Z" fill="white"/>
</svg>
